<svg width="32" height="32" viewBox="0 0 32 32" fill="none" xmlns="http://www.w3.org/2000/svg">
<path fill-rule="evenodd" clip-rule="evenodd" d="M17.0544 4.30375C18.0794 3.05688 19.8294 2.10188 21.3294 2C21.5844 3.70563 20.8869 5.36813 19.9669 6.54125C19.0119 7.77375 17.3769 8.73563 15.7794 8.73563H15.6594C15.3594 7.11 16.1244 5.43375 17.0544 4.30375ZM18.7129 9.23612C19.5693 8.91105 20.5107 8.55374 21.8843 8.55374L21.8781 8.55624C23.7824 8.55624 25.8024 9.59874 27.2399 11.3987C22.5306 13.9869 23.2956 20.7375 28.0574 22.545C27.4074 24.0044 27.0924 24.6519 26.2449 25.9419C25.0674 27.7356 23.4106 29.9731 21.3481 29.995H21.3106C20.4867 29.995 19.9393 29.7435 19.3497 29.4727C18.6618 29.1567 17.9166 28.8144 16.6081 28.8144H16.5706C15.2427 28.8218 14.4753 29.1653 13.7702 29.4809C13.1653 29.7516 12.6063 30.0019 11.7787 30.0019H11.7412C9.67868 29.98 8.10618 27.9606 6.92868 26.16C3.63681 21.13 3.29181 15.2256 5.32431 12.0906C6.77181 9.86749 9.05118 8.56249 11.1887 8.56249C12.3334 8.56249 13.2551 8.89049 14.1323 9.20263C14.9286 9.48597 15.6881 9.75624 16.5443 9.75624C17.3427 9.75624 17.9982 9.5074 18.7129 9.23612Z" fill="black"/>
</svg>
