<svg width="16" height="20" viewBox="0 0 16 20" fill="none" xmlns="http://www.w3.org/2000/svg">
<path d="M11.75 9.99967V4.58301C11.75 2.51194 10.0711 0.833008 7.99999 0.833008C5.92891 0.833008 4.24999 2.51194 4.24999 4.58301V9.99967C4.24999 12.0708 5.92891 13.7497 7.99999 13.7497C10.0711 13.7497 11.75 12.0708 11.75 9.99967Z" fill="#E94057"/>
<path d="M1.74999 8.74967C2.21023 8.74967 2.58332 9.12277 2.58332 9.58301C2.58332 12.5746 5.00844 14.9997 7.99999 14.9997C10.9915 14.9997 13.4167 12.5746 13.4167 9.58301C13.4167 9.12277 13.7898 8.74967 14.25 8.74967C14.7102 8.74967 15.0833 9.12277 15.0833 9.58301C15.0833 13.2131 12.3526 16.2054 8.83332 16.6178V18.333C8.83332 18.7932 8.46023 19.1663 7.99999 19.1663C7.53975 19.1663 7.16666 18.7932 7.16666 18.333V16.6178C3.64734 16.2054 0.916656 13.2131 0.916656 9.58301C0.916656 9.12277 1.28975 8.74967 1.74999 8.74967Z" fill="#E94057"/>
</svg>
