<svg width="15" height="4" viewBox="0 0 15 4" fill="none" xmlns="http://www.w3.org/2000/svg">
<path d="M13.0149 3.25563C12.3245 3.25642 11.7642 2.69742 11.7634 2.00707C11.7627 1.31671 12.3217 0.756424 13.012 0.755631C13.7024 0.754837 14.2626 1.31384 14.2634 2.00419C14.2642 2.69455 13.7052 3.25484 13.0149 3.25563Z" fill="black" stroke="black" stroke-width="0.5"/>
<path d="M7.01488 3.26344C6.32453 3.26424 5.76424 2.70523 5.76345 2.01488C5.76265 1.32452 6.32165 0.764237 7.01201 0.763443C7.70236 0.762649 8.26265 1.32165 8.26344 2.01201C8.26424 2.70236 7.70524 3.26265 7.01488 3.26344Z" fill="black" stroke="black" stroke-width="0.5"/>
<path d="M1.51488 3.27125C0.824526 3.27205 0.264239 2.71305 0.263445 2.02269C0.262651 1.33234 0.821652 0.772049 1.51201 0.771256C2.20236 0.770462 2.76265 1.32946 2.76344 2.01982C2.76424 2.71017 2.20524 3.27046 1.51488 3.27125Z" fill="black" stroke="black" stroke-width="0.5"/>
</svg>
