<svg width="14" height="16" viewBox="0 0 14 16" fill="none" xmlns="http://www.w3.org/2000/svg">
<path fill-rule="evenodd" clip-rule="evenodd" d="M1.57965 0H3.68588C4.55828 0 5.26553 0.878451 5.26553 1.59062V14.4094C5.26553 15.2878 4.55828 16 3.68588 16H1.57965C0.707258 16 0 15.1215 0 14.4094V1.59062C0 0.712166 0.707258 0 1.57965 0V0Z" fill="white"/>
<path fill-rule="evenodd" clip-rule="evenodd" d="M10.3139 0H12.4201C13.2925 0 13.9998 0.878451 13.9998 1.59062V14.4094C13.9998 15.2878 13.2925 16 12.4201 16H10.3139C9.44151 16 8.73425 15.1215 8.73425 14.4094V1.59062C8.73425 0.712166 9.44151 0 10.3139 0V0Z" fill="white"/>
</svg>
