<svg width="512" height="512" viewBox="0 0 512 512" fill="none" xmlns="http://www.w3.org/2000/svg">
<path d="M329.623 17.0905C290.588 26.9154 202.978 48.9668 134.885 65.7784C66.792 82.8082 9.75857 97.6547 7.80685 98.7464C3.036 101.585 0 107.043 0 112.72C0 117.96 3.036 130.186 41.8534 288.476C56.8165 348.954 69.828 399.825 70.9122 401.354C73.5145 405.284 80.6708 408.777 85.4417 408.558C87.6102 408.558 106.477 404.192 127.295 398.952L165.245 389.345L165.679 370.569L165.896 351.792L132.5 360.744C109.513 366.639 98.67 368.822 98.4531 367.731C98.2362 367.076 90.6462 336.946 81.972 300.921C73.0808 264.897 59.8525 211.187 52.4794 181.494C44.6725 150.491 39.468 127.348 40.3354 126.911C40.986 126.474 50.7445 123.854 62.0211 121.016C73.2977 118.178 151.149 98.7464 235.073 77.7866C318.78 57.0451 387.957 39.7969 388.391 39.7969C388.825 39.7969 391.644 49.6218 394.68 61.4117C419.618 164.901 446.509 271.446 449.545 278.215C451.279 282.581 453.014 287.166 453.014 288.258C453.014 290.005 454.532 290.441 470.363 290.441C479.905 290.441 487.711 290.223 487.711 290.005C487.711 289.568 479.905 257.692 470.363 218.829C460.821 179.966 445.641 117.741 436.533 80.4065C427.208 43.0719 418.968 10.7589 417.883 8.79388C415.715 4.42725 410.51 0.933954 404.872 0.0606287C401.619 -0.594365 381.885 3.99059 329.623 17.0905Z" fill="black"/>
<path d="M258.926 172.329C254.155 186.52 245.264 212.283 239.409 229.531L228.783 260.971L224.663 261.19C174.135 264.683 137.703 282.368 124.475 309.441C121.222 316.209 119.487 321.667 118.403 328.436C117.535 333.676 117.318 338.26 117.752 338.697C118.403 339.352 143.775 333.457 165.894 327.562C169.147 326.689 170.448 325.161 172.834 321.012C177.388 312.279 186.713 302.891 195.821 298.088C207.314 291.974 215.988 290.446 238.541 290.446H257.842L259.143 285.206C264.347 264.683 279.744 247.216 297.093 241.758C304.249 239.356 307.285 239.356 354.126 239.575C381.233 239.793 403.353 239.793 403.353 239.575C403.353 238.701 355.861 164.469 355.21 164.032C354.777 163.814 350.44 173.42 345.669 185.21C338.296 203.987 336.994 206.388 335.476 205.078C333.742 203.768 274.973 152.897 270.203 148.312L267.817 146.129L258.926 172.329Z" fill="black"/>
<path d="M139.655 149.395C127.728 152.67 118.187 162.059 115.151 173.848C113.199 180.398 114.5 192.625 117.319 198.302C121.223 205.943 125.343 210.091 132.716 213.803C145.294 220.135 160.691 218.388 170.883 209.218C186.063 195.682 186.497 171.665 171.967 158.129C162.859 149.395 151.149 146.339 139.655 149.395Z" fill="black"/>
<path d="M297.31 265.986C291.671 269.915 288.635 273.409 284.949 281.05C281.913 287.164 278.009 302.01 278.009 307.905V312.272L247.866 312.708C215.338 313.363 212.302 313.8 202.76 320.132C197.555 323.625 191.917 331.048 190.399 336.725C189.749 339.345 189.315 370.566 189.315 414.887C189.098 488.247 189.098 488.902 191.7 494.578C193.218 497.853 196.254 502.22 198.856 504.622C207.964 512.482 200.591 512.263 351.307 511.827L487.276 511.39L493.782 508.115C501.589 504.185 508.745 496.543 510.697 490.212C511.781 486.937 511.998 465.322 511.998 412.486C511.998 330.612 512.215 333.013 503.758 323.407C495.083 313.363 493.565 313.145 462.338 312.708L435.014 312.272L434.146 305.94C433.279 297.862 428.942 285.199 425.255 279.085C421.135 272.754 412.894 265.549 407.473 263.802C404.22 262.929 387.956 262.492 352.825 262.492H302.731L297.31 265.986ZM371.475 342.401C383.402 346.55 392.293 352.445 400.967 361.833C426.34 389.779 425.472 431.481 398.799 458.772C366.704 491.522 314.224 485.845 289.286 446.982C281.479 434.974 279.527 426.677 279.527 409.211C279.527 391.089 281.696 383.011 290.804 369.693C301.647 353.318 319.863 341.746 339.597 338.69C347.62 337.38 362.15 339.126 371.475 342.401ZM460.386 353.536C464.94 355.501 469.06 361.396 469.06 366.418C469.06 373.623 461.904 380.828 454.314 380.828C447.592 380.828 440.218 373.186 440.218 365.981C440.218 362.051 444.339 355.938 448.459 353.755C453.23 351.571 455.398 351.571 460.386 353.536Z" fill="black"/>
<path d="M334.828 359.434C307.721 368.168 292.107 395.241 299.046 422.095C301.432 431.484 304.902 437.379 311.407 444.802C336.78 471.657 379.067 465.107 395.548 431.265C399.234 423.842 399.451 422.969 399.451 409.651C399.451 396.332 399.234 395.459 395.982 388.254C386.874 369.041 369.308 357.906 348.49 358.124C343.285 357.906 337.43 358.561 334.828 359.434Z" fill="black"/>
</svg>
