<svg width="20" height="20" viewBox="0 0 20 20" fill="none" xmlns="http://www.w3.org/2000/svg">
<path fill-rule="evenodd" clip-rule="evenodd" d="M0.833344 9.99967C0.833344 4.93706 4.9374 0.833008 10 0.833008C10.221 0.833008 10.433 0.920805 10.5893 1.07709L18.9226 9.41042C19.0789 9.5667 19.1667 9.77866 19.1667 9.99967C19.1667 15.0623 15.0626 19.1663 10 19.1663C4.9374 19.1663 0.833344 15.0623 0.833344 9.99967ZM8.90559 2.57895C5.2822 3.1087 2.50001 6.22928 2.50001 9.99967C2.50001 14.1418 5.85787 17.4997 10 17.4997C13.7974 17.4997 16.9356 14.6775 17.4317 11.0162C16.9772 11.074 16.4082 11.1158 15.777 11.0929C14.2214 11.0363 12.1996 10.5803 10.6393 8.90005C9.09704 7.23911 8.74724 5.33838 8.77622 3.88926C8.78607 3.39667 8.83943 2.95188 8.90559 2.57895ZM10.4813 3.32615L16.576 9.42084C16.3454 9.43297 16.0974 9.43676 15.8376 9.42731C14.5286 9.37971 13.0088 9.00236 11.8607 7.76597C10.6946 6.51024 10.4195 5.07764 10.4426 3.92259C10.4468 3.71224 10.4609 3.51235 10.4813 3.32615Z" fill="black" fill-opacity="0.4"/>
</svg>
