<svg width="16" height="8" viewBox="0 0 16 8" fill="none" xmlns="http://www.w3.org/2000/svg">
<path d="M11.8041 1.13807C12.0644 0.877722 12.0644 0.455612 11.8041 0.195262C11.5437 -0.0650874 11.1216 -0.0650874 10.8613 0.195262L4.66602 6.39052L1.80409 3.5286C1.54374 3.26825 1.12163 3.26825 0.861278 3.5286C0.600928 3.78894 0.600928 4.21106 0.861278 4.4714L4.19461 7.80474C4.45496 8.06509 4.87707 8.06509 5.13742 7.80474L11.8041 1.13807Z" fill="#E94057"/>
<path d="M15.1374 1.13807C15.3978 0.877722 15.3978 0.455612 15.1374 0.195262C14.8771 -0.0650874 14.455 -0.0650874 14.1946 0.195262L7.9962 6.39367C7.73452 6.18623 7.35311 6.20343 7.11128 6.44526C6.85093 6.70561 6.85093 7.12772 7.11128 7.38807L7.52794 7.80474C7.78829 8.06509 8.2104 8.06509 8.47075 7.80474L15.1374 1.13807Z" fill="#E94057"/>
<path d="M5.55409 3.94526L5.13742 3.5286C4.87707 3.26825 4.45496 3.26825 4.19461 3.5286C3.93426 3.78894 3.93426 4.21106 4.19461 4.4714L4.61128 4.88807C4.87163 5.14842 5.29374 5.14842 5.55409 4.88807C5.81444 4.62772 5.81444 4.20561 5.55409 3.94526Z" fill="#E94057"/>
</svg>
